<?xml version="1.0" standalone="no"?>
<!DOCTYPE svg PUBLIC "-//W3C//DTD SVG 20010904//EN"
 "http://www.w3.org/TR/2001/REC-SVG-20010904/DTD/svg10.dtd">
<svg version="1.0" xmlns="http://www.w3.org/2000/svg"
 width="900.000000pt" height="554.000000pt" viewBox="0 0 900.000000 554.000000"
 preserveAspectRatio="xMidYMid meet">

<g transform="translate(0.000000,554.000000) scale(0.100000,-0.100000)"
fill="#000000" stroke="none">
<path d="M3173 5080 c-41 -23 -57 -40 -77 -83 -24 -49 -26 -63 -24 -150 l3
-97 35 43 c42 53 111 101 165 117 29 8 352 10 1188 8 631 -2 1147 0 1147 4 0
35 -74 142 -116 168 -31 20 -57 20 -1150 20 l-1119 0 -52 -30z"/>
<path d="M3254 4768 c-27 -18 -59 -51 -71 -73 -21 -36 -23 -53 -23 -187 0 -88
4 -149 10 -153 6 -3 34 -54 63 -112 l52 -106 3 219 2 220 29 35 29 34 1086 0
1086 0 27 -28 28 -27 3 -1070 c3 -1177 6 -1112 -58 -1145 -43 -22 -2131 -22
-2170 0 -14 8 -29 14 -33 15 -4 0 -6 -39 -5 -87 l3 -88 1125 0 c1266 0 1166
-6 1232 77 l33 42 3 1158 c2 1125 2 1159 -17 1196 -22 43 -53 73 -98 96 -29
14 -141 16 -1161 16 l-1130 0 -48 -32z"/>
<path d="M6163 4646 c-53 -19 -107 -66 -156 -135 -26 -35 -46 -65 -45 -65 2
-1 497 1 1100 4 l1097 5 93 64 c120 83 125 89 107 105 -37 35 -69 36 -1123 35
-770 -1 -1049 -4 -1073 -13z"/>
<path d="M8354 4528 c-23 -29 -61 -84 -85 -123 -43 -68 -44 -72 -41 -142 2
-40 4 -579 5 -1198 2 -886 5 -1125 14 -1125 25 0 155 114 176 154 l22 41 0
1195 c0 1150 -1 1196 -19 1223 -10 15 -21 27 -25 27 -3 0 -25 -24 -47 -52z"/>
<path d="M715 4463 c-63 -14 -118 -58 -149 -120 -18 -37 -24 -243 -6 -243 6 0
10 6 10 14 0 23 76 101 122 123 23 12 61 27 83 32 55 15 2259 15 2286 1 31
-17 23 8 -24 75 -23 32 -62 74 -85 92 l-44 33 -1086 -1 c-598 -1 -1096 -3
-1107 -6z"/>
<path d="M3584 4357 c-3 -8 -4 -32 -2 -53 3 -37 5 -39 38 -42 112 -8 176 -52
199 -137 15 -56 15 -1234 0 -1290 -23 -85 -94 -135 -190 -135 -41 0 -49 -11
-49 -66 l0 -34 414 0 c228 0 417 3 419 8 2 4 2 26 -1 50 l-4 42 -43 0 c-74 0
-175 58 -175 100 0 9 -5 21 -12 28 -16 16 -29 490 -14 511 8 11 43 13 171 9
88 -2 169 -9 180 -15 11 -6 37 -19 58 -29 93 -46 126 -133 152 -399 15 -160
32 -239 60 -282 l15 -23 250 0 249 0 -3 39 c-4 49 -12 61 -40 61 -34 0 -111
54 -146 101 -41 56 -57 121 -65 254 -12 213 -53 314 -149 359 -18 9 -39 22
-46 31 -14 17 -8 20 112 57 126 38 193 99 240 219 17 44 21 77 22 184 1 146
-12 198 -66 274 -51 71 -87 98 -173 125 -148 48 -272 57 -857 63 -475 5 -538
4 -544 -10z m1022 -161 c63 -22 114 -67 145 -126 22 -41 24 -58 24 -180 0
-120 -2 -140 -22 -176 -70 -131 -115 -148 -398 -149 l-180 0 -3 315 c-1 173 0
321 3 328 8 22 363 12 431 -12z"/>
<path d="M6400 3020 l0 -960 580 0 581 0 -3 138 -3 137 -397 3 -398 2 0 289 0
289 28 5 c15 3 132 6 259 6 128 0 236 2 240 4 5 3 8 63 7 134 l-1 128 -264 5
-264 5 -3 247 -2 248 397 2 398 3 3 138 3 137 -581 0 -580 0 0 -960z"/>
<path d="M1820 3960 c-184 -22 -352 -119 -446 -255 -92 -132 -128 -333 -89
-485 21 -81 68 -169 118 -221 46 -49 163 -128 217 -149 19 -7 39 -17 44 -22 6
-4 16 -8 23 -8 8 0 33 -9 55 -20 23 -11 47 -20 52 -20 17 0 175 -64 226 -91
24 -13 71 -51 105 -84 70 -70 95 -131 95 -236 0 -150 -76 -248 -229 -295 -72
-22 -244 -18 -322 6 -72 23 -147 59 -156 74 -4 5 -5 76 -4 158 l2 149 -118 -3
-118 -3 -3 -274 c-1 -180 1 -278 8 -286 6 -7 23 -15 38 -18 15 -3 68 -15 117
-27 214 -49 384 -60 546 -35 311 47 499 206 553 469 29 142 13 316 -36 405
-70 126 -162 205 -328 283 -58 27 -113 54 -122 59 -10 5 -24 9 -31 9 -13 0
-106 39 -187 78 -19 9 -49 27 -66 40 -17 12 -34 22 -38 22 -15 0 -77 76 -103
125 -36 69 -38 179 -4 247 23 49 103 128 128 128 7 0 21 4 31 9 27 14 109 31
146 31 64 0 201 -33 251 -61 l30 -16 0 -114 c0 -63 4 -120 8 -126 9 -14 190
-19 221 -7 14 5 16 36 16 244 0 178 -3 240 -12 248 -16 12 -131 45 -213 60
-80 15 -324 23 -405 12z"/>
<path d="M6380 1530 c-69 -33 -132 -64 -140 -69 -10 -5 -16 -28 -18 -71 -4
-90 -2 -93 55 -69 26 11 57 24 68 28 11 5 31 13 45 19 14 6 51 22 83 36 l57
25 0 80 c0 58 -4 81 -12 81 -7 0 -69 -27 -138 -60z"/>
<path d="M3760 1250 c-237 -36 -382 -211 -381 -455 1 -146 36 -238 129 -337
122 -130 364 -166 544 -79 81 39 160 119 201 204 26 53 27 65 25 160 l-3 102
-229 3 c-136 1 -233 -2 -240 -7 -17 -14 -13 -141 5 -152 7 -4 61 -8 119 -8
144 0 140 0 140 -12 0 -6 -13 -30 -30 -54 -41 -60 -100 -87 -188 -86 -106 1
-170 36 -219 118 -23 40 -26 55 -26 143 -1 92 1 101 29 146 40 66 97 103 171
110 77 8 138 -9 181 -52 l34 -34 119 0 c75 0 119 4 119 10 0 24 -54 115 -93
157 -22 24 -59 55 -81 68 -82 47 -222 71 -326 55z"/>
<path d="M933 1242 c-10 -7 -30 -56 -140 -362 -66 -185 -87 -241 -143 -391
-27 -75 -50 -139 -50 -143 0 -4 52 -5 116 -4 l117 3 21 65 c12 36 25 71 29 78
6 9 53 12 172 12 l163 0 26 -68 c14 -37 26 -73 26 -80 0 -9 31 -12 114 -12 63
0 117 3 119 8 2 4 -13 54 -35 112 -56 152 -81 219 -133 365 -26 72 -50 139
-54 150 -5 11 -14 36 -20 55 -39 111 -72 195 -82 206 -8 10 -41 14 -123 14
-61 0 -116 -4 -123 -8z m167 -378 c20 -60 42 -122 49 -137 22 -56 20 -57 -94
-57 -91 0 -105 2 -105 17 0 29 94 293 104 290 5 -2 26 -52 46 -113z"/>
<path d="M1622 1242 c-10 -7 -12 -104 -10 -453 l3 -444 107 -3 108 -3 2 168 3
168 26 3 c24 3 31 -6 79 -95 29 -54 66 -121 81 -150 55 -101 40 -93 171 -93
88 0 118 3 118 13 0 6 -43 84 -94 172 -52 88 -92 163 -90 167 2 3 28 20 58 37
145 81 179 275 71 407 -43 52 -117 90 -205 104 -76 12 -409 13 -428 2z m433
-206 c28 -22 30 -29 30 -86 0 -55 -3 -64 -28 -86 -27 -23 -35 -25 -125 -22
l-97 3 -3 108 -3 107 98 0 c88 0 101 -2 128 -24z"/>
<path d="M2731 1236 c-10 -12 -32 -66 -77 -191 -107 -298 -159 -441 -222 -610
-16 -44 -27 -84 -23 -88 4 -4 56 -6 115 -5 l108 3 23 67 c13 38 27 72 30 78 4
6 71 10 169 10 l163 0 16 -37 c8 -21 22 -56 30 -78 l15 -40 103 -3 c123 -3
132 -1 120 30 -34 83 -121 329 -121 341 0 9 -4 18 -9 21 -5 3 -11 16 -14 28
-3 13 -19 61 -37 108 -18 47 -41 112 -52 145 -11 33 -26 74 -33 90 -7 17 -18
50 -26 74 -7 24 -19 50 -27 57 -19 20 -235 20 -251 0z m159 -341 c12 -38 33
-98 46 -133 37 -96 40 -92 -81 -92 -77 0 -105 3 -105 13 0 14 86 272 96 288
10 16 19 0 44 -76z"/>
<path d="M4407 1243 c-4 -3 -7 -144 -7 -312 0 -329 4 -360 55 -447 31 -53 75
-90 145 -123 50 -23 67 -26 175 -26 113 0 123 2 180 30 77 39 118 75 154 138
45 81 51 132 51 447 l0 290 -22 5 c-13 3 -61 5 -108 3 l-85 -3 -5 -307 c-5
-290 -6 -308 -26 -334 -73 -99 -215 -98 -271 1 -22 39 -23 47 -23 336 0 261
-2 298 -16 303 -21 8 -189 8 -197 -1z"/>
<path d="M5592 1242 c-11 -8 -26 -44 -107 -272 -12 -36 -43 -121 -68 -190 -25
-69 -63 -174 -85 -235 -22 -60 -45 -123 -51 -138 -26 -66 -23 -68 100 -65
l112 3 18 57 c33 106 18 98 199 98 182 0 170 6 205 -102 l19 -58 111 0 c62 0
114 2 117 6 3 3 -3 28 -14 57 -21 52 -52 138 -147 407 -29 80 -56 154 -61 165
-4 11 -13 34 -18 50 -29 87 -73 200 -83 211 -13 16 -224 20 -247 6z m142 -304
c40 -109 84 -253 80 -260 -3 -4 -50 -8 -106 -8 l-100 0 5 28 c8 44 91 282 99
282 3 0 13 -19 22 -42z"/>
<path d="M6282 1242 c-9 -7 -12 -104 -10 -453 l3 -444 108 -3 107 -3 -2 453
-3 453 -95 3 c-52 1 -101 -2 -108 -6z"/>
<path d="M6661 1236 c-8 -9 -10 -136 -9 -452 l3 -439 108 -3 107 -3 0 271 c0
148 4 270 9 270 5 0 89 -122 187 -270 l178 -271 111 3 110 3 3 447 2 448 -22
5 c-13 3 -61 5 -108 3 l-85 -3 -3 -268 c-2 -201 -5 -268 -14 -265 -14 5 -67
82 -232 336 -65 100 -127 187 -137 192 -28 16 -194 13 -208 -4z"/>
<path d="M7901 1236 c-7 -8 -27 -56 -45 -108 -33 -91 -103 -284 -132 -363 -8
-22 -28 -78 -44 -125 -16 -47 -47 -131 -69 -188 -28 -73 -35 -105 -27 -108 7
-3 59 -3 116 -2 l104 3 26 75 26 75 164 3 c90 1 167 -1 172 -6 4 -4 19 -39 32
-77 l24 -70 108 -3 c59 -1 111 1 115 5 5 5 -1 33 -12 63 -23 61 -75 204 -149
410 -27 74 -65 180 -85 235 -20 55 -41 114 -46 132 -17 58 -29 63 -153 63 -86
0 -116 -3 -125 -14z m180 -391 c23 -66 43 -132 46 -147 l5 -28 -106 0 c-58 0
-106 3 -106 6 0 8 64 202 86 262 9 25 20 40 25 35 5 -5 27 -63 50 -128z"/>
</g>
</svg>
